<?xml version="1.0" standalone="no"?>
<!DOCTYPE svg PUBLIC "-//W3C//DTD SVG 20010904//EN"
 "http://www.w3.org/TR/2001/REC-SVG-20010904/DTD/svg10.dtd">
<svg version="1.0" xmlns="http://www.w3.org/2000/svg"
 width="630.000000pt" height="630.000000pt" viewBox="0 0 630.000000 630.000000"
 preserveAspectRatio="xMidYMid meet">
<metadata>
Created by potrace 1.15, written by Peter Selinger 2001-2017
</metadata>
<g transform="translate(0.000000,630.000000) scale(0.100000,-0.100000)"
fill="#000000" stroke="none">
<path d="M2830 5514 c-241 -33 -477 -104 -697 -209 -169 -81 -278 -147 -426
-258 -417 -314 -733 -788 -862 -1292 -61 -237 -70 -321 -70 -615 1 -232 3
-280 23 -385 32 -171 77 -333 128 -463 287 -737 905 -1276 1674 -1461 183 -44
333 -61 550 -61 392 0 715 75 1059 246 247 122 439 261 637 460 341 344 565
778 655 1274 31 166 38 516 14 701 -65 519 -307 1012 -680 1384 -350 350 -781
574 -1285 667 -152 28 -559 35 -720 12z m675 -248 c457 -85 842 -284 1160
-601 266 -265 460 -601 555 -959 57 -218 65 -279 65 -556 0 -277 -8 -338 -65
-556 -193 -732 -782 -1321 -1514 -1514 -218 -57 -279 -65 -556 -65 -277 0
-338 8 -556 65 -740 196 -1327 789 -1519 1535 -52 202 -69 363 -62 600 9 342
71 592 223 896 272 546 771 954 1357 1109 96 25 202 45 332 64 76 11 494 -2
580 -18z"/>
<path d="M1907 4493 c-4 -3 -7 -188 -7 -410 l0 -403 105 0 105 0 2 196 3 196
250 -206 c138 -113 253 -206 258 -206 4 0 7 185 7 410 l0 410 -100 0 -100 0 0
-195 c0 -111 -4 -195 -9 -195 -5 0 -117 88 -248 196 -131 108 -243 201 -249
205 -6 5 -14 6 -17 2z"/>
<path d="M3827 4303 c-78 -179 -87 -195 -97 -172 -5 13 -39 96 -73 184 l-63
160 -113 3 c-106 3 -112 2 -107 -16 11 -35 324 -783 330 -789 3 -4 8 -4 10 -2
3 3 47 96 98 208 51 112 97 203 102 203 5 -1 51 -92 103 -204 52 -112 98 -206
102 -210 5 -6 145 325 323 769 l18 43 -108 0 -107 0 -70 -185 c-38 -101 -73
-181 -76 -177 -3 4 -43 88 -88 187 -46 99 -86 183 -90 188 -4 4 -46 -81 -94
-190z"/>
<path d="M2760 4080 l0 -400 290 0 290 0 0 90 0 90 -180 0 -180 0 0 40 0 39
143 3 142 3 3 83 3 82 -118 1 c-65 1 -130 0 -145 -1 l-28 -2 0 96 0 96 170 0
170 0 0 90 0 90 -280 0 -280 0 0 -400z"/>
<path d="M2704 3470 c-112 -16 -186 -54 -263 -135 -28 -30 -60 -75 -71 -100
-110 -257 39 -526 321 -576 189 -34 387 67 467 238 24 52 27 69 27 168 0 98
-3 116 -27 167 -54 116 -189 218 -306 233 -26 3 -58 7 -72 9 -14 1 -48 0 -76
-4z m162 -207 c21 -11 52 -39 69 -62 25 -36 30 -54 33 -116 2 -41 -1 -89 -8
-109 -49 -149 -256 -184 -358 -61 -73 89 -63 245 21 323 57 54 166 65 243 25z"/>
<path d="M1575 3453 c3 -10 71 -129 151 -265 l144 -248 0 -140 0 -140 105 0
105 0 0 135 c0 158 -16 117 169 435 72 123 131 228 131 232 0 4 -49 8 -108 8
l-108 0 -89 -160 c-49 -88 -91 -160 -94 -160 -4 0 -46 72 -95 160 l-88 160
-115 0 c-106 0 -115 -1 -108 -17z"/>
<path d="M3288 3464 c-5 -4 -8 -187 -8 -406 l0 -398 110 0 110 0 0 95 0 95 38
0 c37 0 39 -2 96 -95 l58 -95 114 0 c63 0 114 2 114 4 0 2 -31 53 -69 112
l-68 109 48 45 c67 63 91 121 91 222 0 70 -5 89 -32 144 -35 72 -84 116 -163
147 -44 17 -82 21 -242 25 -104 2 -193 1 -197 -4z m362 -197 c52 -26 74 -114
46 -182 -19 -45 -61 -65 -136 -65 l-60 0 0 130 0 130 63 0 c34 0 73 -6 87 -13z"/>
<path d="M4020 3065 l0 -405 105 0 104 0 3 122 3 121 110 -121 110 -121 139 0
139 -1 -44 50 c-24 27 -99 107 -165 177 l-122 128 154 218 c85 120 154 223
154 228 0 5 -50 9 -113 9 l-113 0 -119 -175 c-65 -97 -122 -178 -127 -181 -4
-3 -8 76 -8 175 l0 181 -105 0 -105 0 0 -405z"/>
<path d="M2160 2444 c-119 -32 -208 -107 -264 -224 -29 -60 -31 -73 -31 -171
0 -101 1 -108 37 -181 45 -91 103 -147 196 -191 64 -30 73 -32 187 -32 116 0
123 1 187 33 40 20 82 50 103 75 63 73 64 69 -26 127 l-81 52 -30 -36 c-16
-20 -44 -44 -61 -53 -47 -24 -143 -23 -192 3 -112 58 -141 259 -53 360 42 47
77 64 138 64 61 0 114 -21 155 -60 l30 -30 75 50 c41 28 75 54 75 60 0 16 -76
90 -120 115 -88 52 -218 68 -325 39z"/>
<path d="M2700 2050 l0 -400 105 0 105 0 0 400 0 400 -105 0 -105 0 0 -400z"/>
<path d="M2970 2360 l0 -90 110 0 110 0 0 -310 0 -310 105 0 105 0 0 310 0
310 105 0 105 0 0 90 0 90 -320 0 -320 0 0 -90z"/>
<path d="M3650 2445 c0 -4 68 -122 150 -264 l150 -257 0 -137 0 -137 105 0
105 0 1 123 c0 67 2 132 5 143 2 12 67 131 145 264 77 134 143 249 146 257 4
10 -17 13 -105 13 l-111 0 -88 -160 c-48 -88 -90 -160 -93 -160 -3 0 -44 71
-91 158 l-87 157 -116 3 c-64 1 -116 0 -116 -3z"/>
</g>
</svg>
