<?xml version="1.0" encoding="iso-8859-1"?>
<!-- Generator: Adobe Illustrator 17.1.0, SVG Export Plug-In . SVG Version: 6.00 Build 0)  -->
<!DOCTYPE svg PUBLIC "-//W3C//DTD SVG 1.1//EN" "http://www.w3.org/Graphics/SVG/1.1/DTD/svg11.dtd">
<svg version="1.1" id="Capa_1" xmlns="http://www.w3.org/2000/svg" xmlns:xlink="http://www.w3.org/1999/xlink" x="0px" y="0px"
	 viewBox="0 0 442 442" style="enable-background:new 0 0 442 442;" xml:space="preserve">
<g>
	<path fill="white" stroke="white" d="M400.102,113.929h-9.994c-5.522,0-10,4.478-10,10c0,5.521,4.475,9.997,9.994,10V422H165.827
		c-0.003-5.52-4.479-9.994-10-9.994c-5.522,0-10,4.478-10,10V432c0,5.522,4.478,10,10,10h244.274c5.522,0,10-4.478,10-10V123.929
		C410.102,118.406,405.624,113.929,400.102,113.929z"/>
	<path fill="white" stroke="white" d="M372.125,394.023V85.952c0-5.522-4.478-10-10-10h-9.993c-5.522,0-10,4.478-10,10c0,5.521,4.474,9.996,9.993,10v288.071
		H127.851c-0.004-5.52-4.479-9.993-10-9.993c-5.522,0-10,4.478-10,10v9.993c0,5.522,4.478,10,10,10h244.274
		C367.647,404.023,372.125,399.546,372.125,394.023z"/>
	<path fill="white" stroke="white" d="M334.149,356.048V47.977c0-5.522-4.478-10-10-10h-33.138c-5.522,0-10,4.478-10,10s4.478,10,10,10h23.138v288.071H89.875
		c-0.003-5.521-4.479-9.994-10-9.994c-5.522,0-10,4.478-10,10v9.994c0,5.522,4.478,10,10,10h244.274
		C329.672,366.048,334.149,361.57,334.149,356.048z"/>
	<path fill="white" stroke="white" d="M296.173,318.071V83.111c0-0.335-0.017-0.668-0.05-0.998c-0.024-0.242-0.066-0.479-0.107-0.716
		c-0.015-0.084-0.022-0.17-0.039-0.254c-0.057-0.286-0.131-0.566-0.212-0.843c-0.01-0.034-0.016-0.069-0.026-0.102
		c-0.086-0.281-0.187-0.556-0.296-0.826c-0.012-0.031-0.021-0.063-0.034-0.093c-0.106-0.255-0.226-0.501-0.352-0.745
		c-0.024-0.047-0.043-0.095-0.068-0.141c-0.117-0.219-0.248-0.428-0.381-0.637c-0.043-0.068-0.08-0.138-0.125-0.205
		c-0.125-0.187-0.263-0.363-0.4-0.54c-0.063-0.082-0.119-0.167-0.185-0.247c-0.151-0.183-0.314-0.355-0.477-0.526
		c-0.061-0.064-0.115-0.133-0.177-0.196L220.133,2.929c-0.063-0.063-0.132-0.116-0.196-0.177c-0.172-0.163-0.343-0.326-0.526-0.477
		c-0.08-0.066-0.166-0.122-0.247-0.185c-0.177-0.137-0.354-0.275-0.54-0.4c-0.067-0.044-0.138-0.082-0.205-0.125
		c-0.209-0.133-0.418-0.264-0.637-0.381c-0.046-0.025-0.095-0.044-0.141-0.068c-0.243-0.126-0.49-0.246-0.745-0.352
		c-0.031-0.013-0.063-0.022-0.093-0.034c-0.27-0.109-0.545-0.21-0.826-0.296c-0.034-0.01-0.068-0.016-0.102-0.026
		c-0.277-0.081-0.557-0.155-0.843-0.212c-0.084-0.017-0.17-0.024-0.254-0.039c-0.237-0.041-0.474-0.083-0.716-0.107
		c-0.33-0.033-0.663-0.05-0.998-0.05H41.898c-5.522,0-10,4.478-10,10v308.071c0,5.522,4.478,10,10,10h244.274
		C291.695,328.071,296.173,323.594,296.173,318.071z M223.062,34.143l38.969,38.969h-38.969V34.143z M51.898,308.071V20h151.163
		v63.111c0,5.522,4.478,10,10,10h63.111v214.96H51.898z"/>
</g>
<g>
</g>
<g>
</g>
<g>
</g>
<g>
</g>
<g>
</g>
<g>
</g>
<g>
</g>
<g>
</g>
<g>
</g>
<g>
</g>
<g>
</g>
<g>
</g>
<g>
</g>
<g>
</g>
<g>
</g>
</svg>
